<svg width="39" height="51" viewBox="0 0 39 51" fill="none" xmlns="http://www.w3.org/2000/svg">
<path d="M19.7276 0C30.6096 0.000111643 38.9121 9.5445 38.9121 20.6953C38.9121 25.5926 37.3099 29.9844 34.5918 33.3711C34.5511 33.4365 34.5088 33.5023 34.462 33.5664L22.9414 49.3145C21.6479 51.0828 18.7815 51.1213 17.4297 49.3887L4.88871 33.3125C4.80946 33.2109 4.74094 33.106 4.67777 33.001C1.955 29.537 0.26419 25.0921 0.0234748 20.1904C-0.531875 8.88105 8.84568 0.000131578 19.7276 0ZM19.5 7C13.1488 7 8.00004 12.3726 8.00004 19C8.00004 25.6274 13.1488 31 19.5 31C25.8513 31 31 25.6274 31 19C31 12.3726 25.8513 7 19.5 7ZM26.5518 13C25.5519 19 21.7518 29.8 14.5518 25L19 19.5L13.5518 24C10.8851 20.6667 9.7518 13.8 26.5518 13Z" fill="#2F8C44"/>
</svg>
